<svg viewBox="0 0 72 72" xmlns="http://www.w3.org/2000/svg" xmlns:xlink="http://www.w3.org/1999/xlink" width="72.000000" height="72.000000" fill="none" customFrame="url(#clipPath_0)">
	<defs>
		<clipPath id="clipPath_0">
			<rect width="72.000000" height="72.000000" x="0.000000" y="0.000000" rx="6.000000" fill="rgb(255,255,255)" />
		</clipPath>
		<clipPath id="clipPath_1">
			<rect width="32.000000" height="32.000000" x="20.000000" y="20.000000" fill="rgb(255,255,255)" />
		</clipPath>
	</defs>
	<rect id="Frame 44" width="72.000000" height="72.000000" x="0.000000" y="0.000000" rx="6.000000" fill="rgb(164.56,61.2,255)" />
	<g id="Education / notes" clip-path="url(#clipPath_1)" customFrame="url(#clipPath_1)">
		<rect id="Education / notes" width="32.000000" height="32.000000" x="20.000000" y="20.000000" fill="rgb(255,255,255)" fill-opacity="0" />
		<path id="Vector" d="M41.3333 38.6665L30.6667 38.6665C30.313 38.6665 29.9739 38.807 29.7239 39.057C29.4738 39.3071 29.3333 39.6462 29.3333 39.9998C29.3333 40.3535 29.4738 40.6926 29.7239 40.9426C29.9739 41.1927 30.313 41.3332 30.6667 41.3332L41.3333 41.3332C41.687 41.3332 42.0261 41.1927 42.2761 40.9426C42.5262 40.6926 42.6667 40.3535 42.6667 39.9998C42.6667 39.6462 42.5262 39.3071 42.2761 39.057C42.0261 38.807 41.687 38.6665 41.3333 38.6665ZM41.3333 33.3332L33.3333 33.3332C32.9797 33.3332 32.6406 33.4736 32.3905 33.7237C32.1405 33.9737 32 34.3129 32 34.6665C32 35.0201 32.1405 35.3593 32.3905 35.6093C32.6406 35.8594 32.9797 35.9998 33.3333 35.9998L41.3333 35.9998C41.687 35.9998 42.0261 35.8594 42.2761 35.6093C42.5262 35.3593 42.6667 35.0201 42.6667 34.6665C42.6667 34.3129 42.5262 33.9737 42.2761 33.7237C42.0261 33.4736 41.687 33.3332 41.3333 33.3332ZM46.6667 25.3332L42.6667 25.3332L42.6667 23.9998C42.6667 23.6462 42.5262 23.3071 42.2761 23.057C42.0261 22.807 41.687 22.6665 41.3333 22.6665C40.9797 22.6665 40.6406 22.807 40.3905 23.057C40.1405 23.3071 40 23.6462 40 23.9998L40 25.3332L37.3333 25.3332L37.3333 23.9998C37.3333 23.6462 37.1929 23.3071 36.9428 23.057C36.6928 22.807 36.3536 22.6665 36 22.6665C35.6464 22.6665 35.3072 22.807 35.0572 23.057C34.8071 23.3071 34.6667 23.6462 34.6667 23.9998L34.6667 25.3332L32 25.3332L32 23.9998C32 23.6462 31.8595 23.3071 31.6095 23.057C31.3594 22.807 31.0203 22.6665 30.6667 22.6665C30.313 22.6665 29.9739 22.807 29.7239 23.057C29.4738 23.3071 29.3333 23.6462 29.3333 23.9998L29.3333 25.3332L25.3333 25.3332C24.9797 25.3332 24.6406 25.4736 24.3905 25.7237C24.1405 25.9737 24 26.3129 24 26.6665L24 45.3332C24 46.394 24.4214 47.4115 25.1716 48.1616C25.9217 48.9117 26.9391 49.3332 28 49.3332L44 49.3332C45.0609 49.3332 46.0783 48.9117 46.8284 48.1616C47.5786 47.4115 48 46.394 48 45.3332L48 26.6665C48 26.3129 47.8595 25.9737 47.6095 25.7237C47.3594 25.4736 47.0203 25.3332 46.6667 25.3332ZM45.3333 45.3332C45.3333 45.6868 45.1929 46.0259 44.9428 46.276C44.6928 46.526 44.3536 46.6665 44 46.6665L28 46.6665C27.6464 46.6665 27.3072 46.526 27.0572 46.276C26.8071 46.0259 26.6667 45.6868 26.6667 45.3332L26.6667 27.9998L29.3333 27.9998L29.3333 29.3332C29.3333 29.6868 29.4738 30.0259 29.7239 30.276C29.9739 30.526 30.313 30.6665 30.6667 30.6665C31.0203 30.6665 31.3594 30.526 31.6095 30.276C31.8595 30.0259 32 29.6868 32 29.3332L32 27.9998L34.6667 27.9998L34.6667 29.3332C34.6667 29.6868 34.8071 30.0259 35.0572 30.276C35.3072 30.526 35.6464 30.6665 36 30.6665C36.3536 30.6665 36.6928 30.526 36.9428 30.276C37.1929 30.0259 37.3333 29.6868 37.3333 29.3332L37.3333 27.9998L40 27.9998L40 29.3332C40 29.6868 40.1405 30.0259 40.3905 30.276C40.6406 30.526 40.9797 30.6665 41.3333 30.6665C41.687 30.6665 42.0261 30.526 42.2761 30.276C42.5262 30.0259 42.6667 29.6868 42.6667 29.3332L42.6667 27.9998L45.3333 27.9998L45.3333 45.3332Z" fill="rgb(255,255,255)" fill-rule="nonzero" />
	</g>
</svg>
