<svg viewBox="0 0 72 72" xmlns="http://www.w3.org/2000/svg" xmlns:xlink="http://www.w3.org/1999/xlink" width="72.000000" height="72.000000" fill="none" customFrame="url(#clipPath_4)">
	<defs>
		<clipPath id="clipPath_4">
			<rect width="72.000000" height="72.000000" x="0.000000" y="0.000000" rx="6.000000" fill="rgb(255,255,255)" />
		</clipPath>
		<clipPath id="clipPath_5">
			<rect width="32.000000" height="32.000000" x="20.000000" y="20.000000" fill="rgb(255,255,255)" />
		</clipPath>
	</defs>
	<rect id="Frame 44" width="72.000000" height="72.000000" x="0.000000" y="0.000000" rx="6.000000" fill="rgb(237,216,255)" fill-opacity="0.5" />
	<g id="User Interface / Pencil" clip-path="url(#clipPath_5)" customFrame="url(#clipPath_5)">
		<rect id="User Interface / Pencil" width="32.000000" height="32.000000" x="20.000000" y="20.000000" fill="rgb(255,255,255)" fill-opacity="0" />
		<path id="Vector" d="M49.3333 29.6532C49.3343 29.4777 49.3007 29.3038 49.2343 29.1413C49.168 28.9789 49.0702 28.8311 48.9466 28.7065L43.2933 23.0532C43.1687 22.9296 43.021 22.8319 42.8585 22.7655C42.6961 22.6991 42.5221 22.6655 42.3466 22.6665C42.1712 22.6655 41.9972 22.6991 41.8348 22.7655C41.6723 22.8319 41.5246 22.9296 41.4 23.0532L37.6266 26.8265L23.0533 41.3999C22.9297 41.5244 22.832 41.6722 22.7656 41.8346C22.6993 41.9971 22.6656 42.1711 22.6666 42.3465L22.6666 47.9999C22.6666 48.3535 22.8071 48.6926 23.0572 48.9427C23.3072 49.1927 23.6464 49.3332 24 49.3332L29.6533 49.3332C29.8399 49.3433 30.0265 49.3142 30.2011 49.2476C30.3756 49.1809 30.5343 49.0784 30.6666 48.9465L45.16 34.3732L48.9466 30.6665C49.0683 30.5373 49.1675 30.3886 49.24 30.2265C49.2528 30.1202 49.2528 30.0128 49.24 29.9065C49.2462 29.8445 49.2462 29.7819 49.24 29.7199L49.3333 29.6532ZM29.1066 46.6665L25.3333 46.6665L25.3333 42.8932L38.5733 29.6532L42.3466 33.4265L29.1066 46.6665ZM44.2266 31.5465L40.4533 27.7732L42.3466 25.8932L46.1066 29.6532L44.2266 31.5465Z" fill="rgb(164.56,61.2,255)" fill-rule="nonzero" />
	</g>
</svg>
